<svg width="26" height="26" viewBox="0 0 26 26" fill="none" xmlns="http://www.w3.org/2000/svg">
<path d="M12.9965 6.32963C9.30533 6.32963 6.32637 9.30858 6.32637 12.9998C6.32637 16.6909 9.30533 19.6699 12.9965 19.6699C16.6877 19.6699 19.6666 16.6909 19.6666 12.9998C19.6666 9.30858 16.6877 6.32963 12.9965 6.32963ZM12.9965 17.3349C10.6094 17.3349 8.66141 15.3868 8.66141 12.9998C8.66141 10.6127 10.6094 8.66466 12.9965 8.66466C15.3836 8.66466 17.3316 10.6127 17.3316 12.9998C17.3316 15.3868 15.3836 17.3349 12.9965 17.3349ZM19.9398 4.50192C19.078 4.50192 18.382 5.19788 18.382 6.0597C18.382 6.92151 19.078 7.61747 19.9398 7.61747C20.8016 7.61747 21.4976 6.92477 21.4976 6.0597C21.4978 5.85506 21.4577 5.65237 21.3795 5.46326C21.3013 5.27415 21.1866 5.10232 21.0419 4.95761C20.8972 4.81291 20.7254 4.69817 20.5363 4.61998C20.3471 4.54179 20.1445 4.50167 19.9398 4.50192ZM25.9985 12.9998C25.9985 11.2046 26.0148 9.42566 25.914 7.63373C25.8132 5.55236 25.3384 3.70515 23.8164 2.18315C22.2911 0.657899 20.4472 0.186339 18.3658 0.0855228C16.5706 -0.0152934 14.7917 0.000967329 12.9998 0.000967329C11.2046 0.000967329 9.42566 -0.0152934 7.63373 0.0855228C5.55236 0.186339 3.70515 0.661151 2.18315 2.18315C0.657899 3.7084 0.186339 5.55236 0.0855228 7.63373C-0.0152934 9.42891 0.000967329 11.2078 0.000967329 12.9998C0.000967329 14.7917 -0.0152934 16.5739 0.0855228 18.3658C0.186339 20.4472 0.661151 22.2944 2.18315 23.8164C3.7084 25.3416 5.55236 25.8132 7.63373 25.914C9.42891 26.0148 11.2078 25.9986 12.9998 25.9986C14.7949 25.9986 16.5739 26.0148 18.3658 25.914C20.4472 25.8132 22.2944 25.3384 23.8164 23.8164C25.3416 22.2911 25.8132 20.4472 25.914 18.3658C26.0181 16.5739 25.9985 14.7949 25.9985 12.9998ZM23.1367 20.6683C22.8993 21.2602 22.6131 21.7025 22.1545 22.1578C21.696 22.6163 21.2569 22.9025 20.665 23.1399C18.9544 23.8196 14.8925 23.6668 12.9965 23.6668C11.1005 23.6668 7.03534 23.8196 5.32472 23.1432C4.73283 22.9058 4.29054 22.6196 3.83524 22.161C3.37669 21.7025 3.0905 21.2634 2.85309 20.6716C2.17665 18.9577 2.3295 14.8958 2.3295 12.9998C2.3295 11.1038 2.17665 7.03859 2.85309 5.32797C3.0905 4.73608 3.37669 4.29379 3.83524 3.83849C4.29379 3.38319 4.73283 3.09375 5.32472 2.85634C7.03534 2.1799 11.1005 2.33275 12.9965 2.33275C14.8925 2.33275 18.9577 2.1799 20.6683 2.85634C21.2602 3.09375 21.7025 3.37994 22.1578 3.83849C22.6163 4.29704 22.9025 4.73608 23.1399 5.32797C23.8164 7.03859 23.6635 11.1038 23.6635 12.9998C23.6635 14.8958 23.8164 18.9577 23.1367 20.6683Z" fill="#442A24"/>
</svg>
